<svg width="936" height="262" viewBox="0 0 936 262">
    <line x1="555.0" y1="16" x2="555.0" y2="246.0" stroke="rgba(11,11,11,0.14)" stroke-width="2"/><text x="56" y="46.0" fill="#9E0142" font-family="'JetBrains Mono',ui-monospace,monospace" font-size="24" font-weight="800" text-anchor="start">BMRI</text><rect x="282.8" y="24.0" width="272.2" height="30.0" rx="6" fill="#D53E50"/><text x="272.8" y="46.0" fill="#D53E50" font-family="'JetBrains Mono',ui-monospace,monospace" font-size="23" font-weight="800" text-anchor="end">-7.81%</text><line x1="182" y1="62.0" x2="920.0" y2="62.0" stroke="rgba(11,11,11,0.08)" stroke-width="1.5"/><text x="56" y="92.0" fill="#9E0142" font-family="'JetBrains Mono',ui-monospace,monospace" font-size="24" font-weight="800" text-anchor="start">EXCL</text><rect x="325.3" y="70.0" width="229.7" height="30.0" rx="6" fill="#D53E50"/><text x="315.3" y="92.0" fill="#D53E50" font-family="'JetBrains Mono',ui-monospace,monospace" font-size="23" font-weight="800" text-anchor="end">-6.59%</text><line x1="182" y1="108.0" x2="920.0" y2="108.0" stroke="rgba(11,11,11,0.08)" stroke-width="1.5"/><text x="56" y="138.0" fill="#9E0142" font-family="'JetBrains Mono',ui-monospace,monospace" font-size="24" font-weight="800" text-anchor="start">KLBF</text><rect x="371.7" y="116.0" width="183.3" height="30.0" rx="6" fill="#D53E50"/><text x="361.7" y="138.0" fill="#D53E50" font-family="'JetBrains Mono',ui-monospace,monospace" font-size="23" font-weight="800" text-anchor="end">-5.26%</text><line x1="182" y1="154.0" x2="920.0" y2="154.0" stroke="rgba(11,11,11,0.08)" stroke-width="1.5"/><text x="56" y="184.0" fill="#9E0142" font-family="'JetBrains Mono',ui-monospace,monospace" font-size="24" font-weight="800" text-anchor="start">BBTN</text><rect x="402.7" y="162.0" width="152.3" height="30.0" rx="6" fill="#D53E50"/><text x="392.7" y="184.0" fill="#D53E50" font-family="'JetBrains Mono',ui-monospace,monospace" font-size="23" font-weight="800" text-anchor="end">-4.37%</text><line x1="182" y1="200.0" x2="920.0" y2="200.0" stroke="rgba(11,11,11,0.08)" stroke-width="1.5"/><text x="56" y="230.0" fill="#9E0142" font-family="'JetBrains Mono',ui-monospace,monospace" font-size="24" font-weight="800" text-anchor="start">UNTR</text><rect x="417.3" y="208.0" width="137.7" height="30.0" rx="6" fill="#D53E50"/><text x="407.3" y="230.0" fill="#D53E50" font-family="'JetBrains Mono',ui-monospace,monospace" font-size="23" font-weight="800" text-anchor="end">-3.95%</text></svg>